<mxfile host="app.diagrams.net" modified="2023-07-09T01:06:20.417Z" agent="Mozilla/5.0 (X11; Linux x86_64) AppleWebKit/537.36 (KHTML, like Gecko) Chrome/114.0.0.0 Safari/537.36" version="21.5.2" etag="NHhtBIWkin7eYQktbizG" type="github">
  <diagram name="Page-1" id="nzDO3ZbdwUi7aDr2axk2">
    <mxGraphModel>
      <root>
        <mxCell id="0" />
        <mxCell id="1" parent="0" />
      </root>
    </mxGraphModel>
  </diagram>
</mxfile>
